<?xml version="1.0" encoding="UTF-8" standalone="no"?><svg xmlns="http://www.w3.org/2000/svg" xmlns:xlink="http://www.w3.org/1999/xlink" contentScriptType="application/ecmascript" contentStyleType="text/css" height="325px" preserveAspectRatio="none" style="width:373px;height:325px;" version="1.1" viewBox="0 0 373 325" width="373px" zoomAndPan="magnify"><defs><filter height="300%" id="flu7l5tvvnz37" width="300%" x="-1" y="-1"><feGaussianBlur result="blurOut" stdDeviation="2.0"/><feColorMatrix in="blurOut" result="blurOut2" type="matrix" values="0 0 0 0 0 0 0 0 0 0 0 0 0 0 0 0 0 0 .4 0"/><feOffset dx="4.0" dy="4.0" in="blurOut2" result="blurOut3"/><feBlend in="SourceGraphic" in2="blurOut3" mode="normal"/></filter></defs><g><rect fill="#FFFFFF" filter="url(#flu7l5tvvnz37)" height="127.9453" style="stroke:#000000;stroke-width:2.0;" width="349" x="10" y="57.2969"/><line style="stroke:#A80036;stroke-width:1.0;stroke-dasharray:5.0,5.0;" x1="45" x2="45" y1="40.2969" y2="318.7734"/><line style="stroke:#A80036;stroke-width:1.0;stroke-dasharray:5.0,5.0;" x1="187.5" x2="187.5" y1="40.2969" y2="318.7734"/><line style="stroke:#A80036;stroke-width:1.0;stroke-dasharray:5.0,5.0;" x1="326" x2="326" y1="40.2969" y2="318.7734"/><rect fill="#FEFECE" filter="url(#flu7l5tvvnz37)" height="30.2969" style="stroke:#A80036;stroke-width:1.5;" width="46" x="20" y="5"/><text fill="#000000" font-family="sans-serif" font-size="14" lengthAdjust="spacingAndGlyphs" textLength="32" x="27" y="24.9951">Alice</text><rect fill="#FEFECE" filter="url(#flu7l5tvvnz37)" height="30.2969" style="stroke:#A80036;stroke-width:1.5;" width="99" x="136.5" y="5"/><text fill="#000000" font-family="sans-serif" font-size="14" lengthAdjust="spacingAndGlyphs" textLength="85" x="143.5" y="24.9951">Parent Layer</text><rect fill="#FEFECE" filter="url(#flu7l5tvvnz37)" height="30.2969" style="stroke:#A80036;stroke-width:1.5;" width="42" x="303" y="5"/><text fill="#000000" font-family="sans-serif" font-size="14" lengthAdjust="spacingAndGlyphs" textLength="28" x="310" y="24.9951">Bob</text><path d="M10,57.2969 L80,57.2969 L80,64.2969 L70,74.2969 L10,74.2969 L10,57.2969 " fill="#EEEEEE" style="stroke:#000000;stroke-width:1.0;"/><rect fill="none" height="127.9453" style="stroke:#000000;stroke-width:2.0;" width="349" x="10" y="57.2969"/><text fill="#000000" font-family="sans-serif" font-size="13" font-weight="bold" lengthAdjust="spacingAndGlyphs" textLength="25" x="25" y="70.3638">opt</text><text fill="#000000" font-family="sans-serif" font-size="11" font-weight="bold" lengthAdjust="spacingAndGlyphs" textLength="196" x="95" y="69.5073">[not required for sub-channels</text><text fill="#000000" font-family="sans-serif" font-size="11" font-weight="bold" lengthAdjust="spacingAndGlyphs" textLength="161" x="95" y="82.312">and virtual channels that</text><text fill="#000000" font-family="sans-serif" font-size="11" font-weight="bold" lengthAdjust="spacingAndGlyphs" textLength="148" x="95" y="95.1167">are finalized off-chain]</text><polygon fill="#A80036" points="176,114.9766,186,118.9766,176,122.9766,180,118.9766" style="stroke:#A80036;stroke-width:1.0;"/><line style="stroke:#A80036;stroke-width:1.0;" x1="45" x2="182" y1="118.9766" y2="118.9766"/><text fill="#000000" font-family="sans-serif" font-size="13" lengthAdjust="spacingAndGlyphs" textLength="59" x="87" y="113.9106">Conclude</text><polygon fill="#A80036" points="56,144.1094,46,148.1094,56,152.1094,52,148.1094" style="stroke:#A80036;stroke-width:1.0;"/><line style="stroke:#A80036;stroke-width:1.0;" x1="50" x2="187" y1="148.1094" y2="148.1094"/><text fill="#000000" font-family="sans-serif" font-size="13" lengthAdjust="spacingAndGlyphs" textLength="104" x="64.5" y="143.0435">State concluded</text><polygon fill="#A80036" points="314,173.2422,324,177.2422,314,181.2422,318,177.2422" style="stroke:#A80036;stroke-width:1.0;"/><line style="stroke:#A80036;stroke-width:1.0;" x1="188" x2="320" y1="177.2422" y2="177.2422"/><text fill="#000000" font-family="sans-serif" font-size="13" lengthAdjust="spacingAndGlyphs" textLength="104" x="205" y="172.1763">State concluded</text><polygon fill="#A80036" points="176,209.375,186,213.375,176,217.375,180,213.375" style="stroke:#A80036;stroke-width:1.0;"/><line style="stroke:#A80036;stroke-width:1.0;" x1="45" x2="182" y1="213.375" y2="213.375"/><text fill="#000000" font-family="sans-serif" font-size="13" lengthAdjust="spacingAndGlyphs" textLength="57" x="88" y="208.3091">Withdraw</text><polygon fill="#A80036" points="56,238.5078,46,242.5078,56,246.5078,52,242.5078" style="stroke:#A80036;stroke-width:1.0;"/><line style="stroke:#A80036;stroke-width:1.0;" x1="50" x2="187" y1="242.5078" y2="242.5078"/><text fill="#000000" font-family="sans-serif" font-size="13" lengthAdjust="spacingAndGlyphs" textLength="119" x="57" y="237.4419">Withdrawn for alice</text><polygon fill="#A80036" points="199,267.6406,189,271.6406,199,275.6406,195,271.6406" style="stroke:#A80036;stroke-width:1.0;"/><line style="stroke:#A80036;stroke-width:1.0;" x1="193" x2="325" y1="271.6406" y2="271.6406"/><text fill="#000000" font-family="sans-serif" font-size="13" lengthAdjust="spacingAndGlyphs" textLength="57" x="228.5" y="266.5747">Withdraw</text><polygon fill="#A80036" points="314,296.7734,324,300.7734,314,304.7734,318,300.7734" style="stroke:#A80036;stroke-width:1.0;"/><line style="stroke:#A80036;stroke-width:1.0;" x1="188" x2="320" y1="300.7734" y2="300.7734"/><text fill="#000000" font-family="sans-serif" font-size="13" lengthAdjust="spacingAndGlyphs" textLength="114" x="200" y="295.7075">Withdrawn for bob</text><!--MD5=[adb4155995609368f430dc60f3ff594a]
@startuml settle_generic
hide footbox
skinparam SequenceMessageAlign center

participant "Alice" as alice
participant "Parent Layer" as parentLayer
participant "Bob" as bob

opt not required for sub-channels\nand virtual channels that\nare finalized off-chain
alice -> parentLayer: Conclude
alice <- parentLayer: State concluded
parentLayer -> bob: State concluded
end

alice -> parentLayer: Withdraw
alice <- parentLayer: Withdrawn for alice

bob -> parentLayer: Withdraw
bob <- parentLayer: Withdrawn for bob

@enduml

PlantUML version 1.2020.21(Mon Nov 30 22:10:11 IST 2020)
(GPL source distribution)
Java Runtime: OpenJDK Runtime Environment
JVM: OpenJDK 64-Bit Server VM
Default Encoding: UTF-8
Language: en
Country: IN
--></g></svg>