<?xml version="1.0" encoding="UTF-8" standalone="no"?><svg xmlns="http://www.w3.org/2000/svg" xmlns:xlink="http://www.w3.org/1999/xlink" contentScriptType="application/ecmascript" contentStyleType="text/css" height="538px" preserveAspectRatio="none" style="width:823px;height:538px;" version="1.1" viewBox="0 0 823 538" width="823px" zoomAndPan="magnify"><defs><filter height="300%" id="f9msyczachtf8" width="300%" x="-1" y="-1"><feGaussianBlur result="blurOut" stdDeviation="2.0"/><feColorMatrix in="blurOut" result="blurOut2" type="matrix" values="0 0 0 0 0 0 0 0 0 0 0 0 0 0 0 0 0 0 .4 0"/><feOffset dx="4.0" dy="4.0" in="blurOut2" result="blurOut3"/><feBlend in="SourceGraphic" in2="blurOut3" mode="normal"/></filter></defs><g><text fill="#000000" font-family="sans-serif" font-size="18" lengthAdjust="spacingAndGlyphs" textLength="370" x="220" y="19.2419">Activity Diagram - User initalizing the node.</text><!--MD5=[3320c4e17d84b5275ff7273532b2725a]
cluster computer--><polygon fill="#FFFFFF" filter="url(#f9msyczachtf8)" points="84,76.4358,158,76.4358,165,101.5038,806,101.5038,806,396.4358,84,396.4358,84,76.4358" style="stroke:#000000;stroke-width:1.5;"/><line style="stroke:#000000;stroke-width:1.5;" x1="84" x2="165" y1="101.5038" y2="101.5038"/><text fill="#000000" font-family="sans-serif" font-size="14" font-weight="bold" lengthAdjust="spacingAndGlyphs" textLength="68" x="88" y="93.4018">computer</text><ellipse cx="216.6425" cy="247.3627" fill="#FEFECE" filter="url(#f9msyczachtf8)" rx="116.6425" ry="41.9268" style="stroke:#A80036;stroke-width:1.5;"/><text fill="#000000" font-family="sans-serif" font-size="14" lengthAdjust="spacingAndGlyphs" textLength="167" x="133.1425" y="236.5255">Prepare blockchain node</text><text fill="#000000" font-family="sans-serif" font-size="14" lengthAdjust="spacingAndGlyphs" textLength="143" x="145.1425" y="255.5934">[Run own instance or</text><text fill="#000000" font-family="sans-serif" font-size="14" lengthAdjust="spacingAndGlyphs" textLength="139" x="147.1425" y="274.6613">use external service]</text><ellipse cx="216.4874" cy="142.5991" fill="#FEFECE" filter="url(#f9msyczachtf8)" rx="52.4874" ry="28.1632" style="stroke:#A80036;stroke-width:1.5;"/><text fill="#000000" font-family="sans-serif" font-size="14" lengthAdjust="spacingAndGlyphs" textLength="50" x="191.4874" y="136.4508">Provide</text><text fill="#000000" font-family="sans-serif" font-size="14" lengthAdjust="spacingAndGlyphs" textLength="75" x="178.9874" y="155.5187">peer ID file</text><ellipse cx="216.7013" cy="352.2247" fill="#FEFECE" filter="url(#f9msyczachtf8)" rx="60.2013" ry="27.7888" style="stroke:#A80036;stroke-width:1.5;"/><text fill="#000000" font-family="sans-serif" font-size="14" lengthAdjust="spacingAndGlyphs" textLength="50" x="191.7013" y="345.4966">Provide</text><text fill="#000000" font-family="sans-serif" font-size="14" lengthAdjust="spacingAndGlyphs" textLength="88" x="172.7013" y="364.5646">keystore files</text><ellipse cx="491.8291" cy="247.4522" fill="#FEFECE" filter="url(#f9msyczachtf8)" rx="47.8291" ry="28.5163" style="stroke:#A80036;stroke-width:1.5;"/><text fill="#000000" font-family="sans-serif" font-size="14" lengthAdjust="spacingAndGlyphs" textLength="50" x="466.8291" y="241.84">Provide</text><text fill="#000000" font-family="sans-serif" font-size="14" lengthAdjust="spacingAndGlyphs" textLength="67" x="458.3291" y="260.9079">config file</text><ellipse cx="720.3636" cy="300.539" fill="#FEFECE" filter="url(#f9msyczachtf8)" rx="69.3636" ry="27.1032" style="stroke:#A80036;stroke-width:1.5;"/><text fill="#000000" font-family="sans-serif" font-size="14" lengthAdjust="spacingAndGlyphs" textLength="32" x="704.3636" y="292.7148">Start</text><text fill="#000000" font-family="sans-serif" font-size="14" lengthAdjust="spacingAndGlyphs" textLength="105" x="667.8636" y="311.7827">the perun node</text><!--MD5=[f152b445e5bcee5e5394952cb1476aeb]
entity alice--><ellipse cx="21.5" cy="214.9358" fill="#FEFECE" filter="url(#f9msyczachtf8)" rx="8" ry="8" style="stroke:#A80036;stroke-width:1.5;"/><path d="M21.5,222.9358 L21.5,249.9358 M8.5,230.9358 L34.5,230.9358 M21.5,249.9358 L8.5,264.9358 M21.5,249.9358 L34.5,264.9358 " fill="none" filter="url(#f9msyczachtf8)" style="stroke:#A80036;stroke-width:1.5;"/><text fill="#000000" font-family="sans-serif" font-size="14" lengthAdjust="spacingAndGlyphs" textLength="31" x="6" y="285.4018">alice</text><!--MD5=[b26f0dd3d2b299230f0d626c8196fb81]
reverse link prep_bc to prov_cnf--><path d="M338.12,247.4358 C375.54,247.4358 414.6,247.4358 443.87,247.4358 " fill="none" id="prep_bc-backto-prov_cnf" style="stroke:#A80036;stroke-width:2.0;stroke-dasharray:7.0,7.0;"/><polygon fill="#A80036" points="333.09,247.4358,342.09,251.4358,338.09,247.4358,342.09,243.4358,333.09,247.4358" style="stroke:#A80036;stroke-width:2.0;"/><text fill="#000000" font-family="sans-serif" font-size="13" lengthAdjust="spacingAndGlyphs" textLength="49" x="364" y="243.3329">requires</text><!--MD5=[02374aeed770062597cd4ef9be56d893]
reverse link prov_cont to prov_cnf--><path d="M264.31,160.4058 C316.91,180.5958 401.42,213.0458 451.04,232.0958 " fill="none" id="prov_cont-backto-prov_cnf" style="stroke:#A80036;stroke-width:2.0;stroke-dasharray:7.0,7.0;"/><polygon fill="#A80036" points="259.63,158.6058,266.6085,165.5557,264.3004,160.3912,269.465,158.0831,259.63,158.6058" style="stroke:#A80036;stroke-width:2.0;"/><text fill="#000000" font-family="sans-serif" font-size="13" lengthAdjust="spacingAndGlyphs" textLength="49" x="364" y="197.3329">requires</text><!--MD5=[99cf1719fa70f492cd11c54bd394f1ff]
reverse link prov_ks to prov_cnf--><path d="M267.99,333.0458 C320.87,312.7458 402.85,281.2758 451.3,262.6758 " fill="none" id="prov_ks-backto-prov_cnf" style="stroke:#A80036;stroke-width:2.0;stroke-dasharray:7.0,7.0;"/><polygon fill="#A80036" points="263.28,334.8558,273.1155,335.3685,267.9486,333.0658,270.2514,327.8988,263.28,334.8558" style="stroke:#A80036;stroke-width:2.0;"/><text fill="#000000" font-family="sans-serif" font-size="13" lengthAdjust="spacingAndGlyphs" textLength="49" x="364" y="275.3329">requires</text><!--MD5=[f84394e7cdd3f7f117f6d4d73d20a9b1]
reverse link prov_cnf to start_perun--><path d="M541.99,258.8958 C576.83,267.0458 623.81,278.0358 660.68,286.6658 " fill="none" id="prov_cnf-backto-start_perun" style="stroke:#A80036;stroke-width:2.0;stroke-dasharray:7.0,7.0;"/><polygon fill="#A80036" points="536.94,257.7158,544.7885,263.6657,541.8078,258.8579,546.6157,255.8772,536.94,257.7158" style="stroke:#A80036;stroke-width:2.0;"/><text fill="#000000" font-family="sans-serif" font-size="13" lengthAdjust="spacingAndGlyphs" textLength="49" x="571" y="262.3329">requires</text><!--MD5=[a65e696f2a4aec7bcce27d0752484d1e]
link alice to prep_bc--><path d="M37.01,247.4358 C50.29,247.4358 71.35,247.4358 94.41,247.4358 " fill="none" id="alice-to-prep_bc" style="stroke:#A80036;stroke-width:2.0;"/><polygon fill="#A80036" points="99.68,247.4358,90.68,243.4358,94.68,247.4358,90.68,251.4358,99.68,247.4358" style="stroke:#A80036;stroke-width:2.0;"/><!--MD5=[7bab052ddb0fadf5d0f1a63af3b551ba]
link alice to prov_cont--><path d="M37.13,225.9158 C46.82,213.1258 60.56,197.4858 76,187.4358 C101.79,170.6258 134.36,159.6558 161.54,152.7558 " fill="none" id="alice-to-prov_cont" style="stroke:#A80036;stroke-width:2.0;"/><polygon fill="#A80036" points="166.55,151.5158,156.8474,149.8248,161.7001,152.7319,158.7931,157.5846,166.55,151.5158" style="stroke:#A80036;stroke-width:2.0;"/><!--MD5=[208dfb4ede5ff98a09a45f4018fa6f5e]
link alice to prov_cnf--><path d="M24.68,205.3458 C29.01,169.8058 41.36,120.9058 76,96.4358 C169.28,30.5158 226.98,53.9158 333,96.4358 C393.24,120.5858 443.51,179.8758 470.25,216.5658 " fill="none" id="alice-to-prov_cnf" style="stroke:#A80036;stroke-width:2.0;"/><polygon fill="#A80036" points="473.39,220.9258,471.3881,211.2826,470.473,216.8649,464.8907,215.9498,473.39,220.9258" style="stroke:#A80036;stroke-width:2.0;"/><!--MD5=[348d558fb271034b78e07d4760e57270]
link alice to prov_ks--><path d="M37,268.2658 C46.74,280.8758 60.58,296.4058 76,306.4358 C100.05,322.0658 129.91,332.8458 155.82,340.0158 " fill="none" id="alice-to-prov_ks" style="stroke:#A80036;stroke-width:2.0;"/><polygon fill="#A80036" points="160.94,341.3958,153.2894,335.1936,156.1119,340.096,151.2096,342.9185,160.94,341.3958" style="stroke:#A80036;stroke-width:2.0;"/><!--MD5=[727aa16fa58592a87876a19fadfc7666]
link alice to start_perun--><path d="M24.81,289.5958 C29.23,324.8758 41.65,373.2158 76,397.4358 C266.12,531.4758 566.68,387.1558 677.05,325.5258 " fill="none" id="alice-to-start_perun" style="stroke:#A80036;stroke-width:2.0;"/><polygon fill="#A80036" points="681.53,323.0158,671.7235,323.9281,677.1687,325.461,675.6358,330.9062,681.53,323.0158" style="stroke:#A80036;stroke-width:2.0;"/><!--MD5=[711fa3eaf9e78947872a3c0b5efb82a6]
@startuml act_node_init
Title Activity Diagram - User initalizing the node.

skinparam sequence {
    messageAlign center
    ArrowThickness 2
    BoxBorderColor Sienna
    BoxBackgroundColor SeaShell
    GroupBodyBackgroundColor transparent
    NoteTextAlignment center
    DefaultTextAlignment center
}

actor alice

left to right direction

package computer {
    (Prepare blockchain node\n[Run own instance or\nuse external service]) as prep_bc
    (Provide\npeer ID file) as prov_cont
    (Provide\nkeystore files) as prov_ks
    (Provide\nconfig file) as prov_cnf
    (Start\nthe perun node) as start_perun
}

prov_cnf .up.> prep_bc: requires
prov_cnf .up.> prov_cont: requires
prov_cnf .up.> prov_ks: requires
start_perun .up.> prov_cnf: requires

alice -right-> prep_bc
alice -down-> prov_cont
alice -down-> prov_cnf
alice -down-> prov_ks
alice -right-> start_perun

@enduml

PlantUML version 1.2020.21(Mon Nov 30 17:40:11 CET 2020)
(GPL source distribution)
Java Runtime: OpenJDK Runtime Environment
JVM: OpenJDK 64-Bit Server VM
Default Encoding: UTF-8
Language: en
Country: IN
--></g></svg>