<?xml version="1.0" encoding="UTF-8" standalone="no"?><svg xmlns="http://www.w3.org/2000/svg" xmlns:xlink="http://www.w3.org/1999/xlink" contentScriptType="application/ecmascript" contentStyleType="text/css" height="612px" preserveAspectRatio="none" style="width:914px;height:612px;" version="1.1" viewBox="0 0 914 612" width="914px" zoomAndPan="magnify"><defs><filter height="300%" id="f6eb3npen71h" width="300%" x="-1" y="-1"><feGaussianBlur result="blurOut" stdDeviation="2.0"/><feColorMatrix in="blurOut" result="blurOut2" type="matrix" values="0 0 0 0 0 0 0 0 0 0 0 0 0 0 0 0 0 0 .4 0"/><feOffset dx="4.0" dy="4.0" in="blurOut2" result="blurOut3"/><feBlend in="SourceGraphic" in2="blurOut3" mode="normal"/></filter></defs><g><text fill="#000000" font-family="sans-serif" font-size="22" font-weight="bold" lengthAdjust="spacingAndGlyphs" textLength="237" x="332.25" y="23.5181">Deployment Diagram</text><!--MD5=[19e6f2a364bc359118f1b921aca8bdf0]
cluster alice's computer--><polygon fill="#FFFFFF" filter="url(#f6eb3npen71h)" points="203,45.9641,213,35.9641,397,35.9641,397,475.9641,387,485.9641,203,485.9641,203,45.9641" style="stroke:#000000;stroke-width:1.5;"/><line style="stroke:#000000;stroke-width:1.5;" x1="387" x2="397" y1="45.9641" y2="35.9641"/><line style="stroke:#000000;stroke-width:1.5;" x1="203" x2="387" y1="45.9641" y2="45.9641"/><line style="stroke:#000000;stroke-width:1.5;" x1="387" x2="387" y1="45.9641" y2="485.9641"/><text fill="#000000" font-family="sans-serif" font-size="14" font-style="italic" lengthAdjust="spacingAndGlyphs" textLength="53" x="269.5" y="63.93">«device»</text><text fill="#000000" font-family="sans-serif" font-size="14" font-weight="bold" lengthAdjust="spacingAndGlyphs" textLength="114" x="239" y="82.998">alice's computer</text><!--MD5=[8a9681a9a7d01efb96fb3c6d1c27ad3f]
cluster bob's computer--><polygon fill="#FFFFFF" filter="url(#f6eb3npen71h)" points="526.5,45.9641,536.5,35.9641,712.5,35.9641,712.5,354.9641,702.5,364.9641,526.5,364.9641,526.5,45.9641" style="stroke:#000000;stroke-width:1.5;"/><line style="stroke:#000000;stroke-width:1.5;" x1="702.5" x2="712.5" y1="45.9641" y2="35.9641"/><line style="stroke:#000000;stroke-width:1.5;" x1="526.5" x2="702.5" y1="45.9641" y2="45.9641"/><line style="stroke:#000000;stroke-width:1.5;" x1="702.5" x2="702.5" y1="45.9641" y2="364.9641"/><text fill="#000000" font-family="sans-serif" font-size="14" font-style="italic" lengthAdjust="spacingAndGlyphs" textLength="53" x="589" y="63.93">«device»</text><text fill="#000000" font-family="sans-serif" font-size="14" font-weight="bold" lengthAdjust="spacingAndGlyphs" textLength="110" x="560.5" y="82.998">bob's computer</text><!--MD5=[560ee02c553af32a53549c9adfcbc007]
entity alice_perun_node--><rect fill="#FEFECE" filter="url(#f6eb3npen71h)" height="44.792" style="stroke:#000000;stroke-width:1.5;" width="122" x="239" y="303.4641"/><polygon fill="#FEFECE" points="344,308.4641,344,322.4641,356,322.4641,356,314.4641,350,308.4641,344,308.4641" style="stroke:#000000;stroke-width:1.5;"/><line style="stroke:#000000;stroke-width:1.5;" x1="350" x2="350" y1="308.4641" y2="314.4641"/><line style="stroke:#000000;stroke-width:1.5;" x1="356" x2="350" y1="314.4641" y2="314.4641"/><text fill="#000000" font-family="sans-serif" font-size="16" font-weight="bold" lengthAdjust="spacingAndGlyphs" textLength="92" x="249" y="333.5681">perun node</text><!--MD5=[e875f9f385811dc5231ddddad40feb0c]
entity blockchain_node_1--><polygon fill="#FEFECE" filter="url(#f6eb3npen71h)" points="219,430.4641,229,420.4641,381,420.4641,381,459.532,371,469.532,219,469.532,219,430.4641" style="stroke:#000000;stroke-width:1.5;"/><line style="stroke:#000000;stroke-width:1.5;" x1="371" x2="381" y1="430.4641" y2="420.4641"/><line style="stroke:#000000;stroke-width:1.5;" x1="219" x2="371" y1="430.4641" y2="430.4641"/><line style="stroke:#000000;stroke-width:1.5;" x1="371" x2="371" y1="430.4641" y2="469.532"/><text fill="#000000" font-family="sans-serif" font-size="14" lengthAdjust="spacingAndGlyphs" textLength="122" x="234" y="455.43">blockchain node 1</text><!--MD5=[a63cd4b497f5ca619f849b9fcb527aec]
entity ID_provider_1--><polygon fill="#FEFECE" filter="url(#f6eb3npen71h)" points="236,192.4641,246,182.4641,364,182.4641,364,221.532,354,231.532,236,231.532,236,192.4641" style="stroke:#000000;stroke-width:1.5;"/><line style="stroke:#000000;stroke-width:1.5;" x1="354" x2="364" y1="192.4641" y2="182.4641"/><line style="stroke:#000000;stroke-width:1.5;" x1="236" x2="354" y1="192.4641" y2="192.4641"/><line style="stroke:#000000;stroke-width:1.5;" x1="354" x2="354" y1="192.4641" y2="231.532"/><text fill="#000000" font-family="sans-serif" font-size="14" lengthAdjust="spacingAndGlyphs" textLength="88" x="251" y="217.43">ID provider 1</text><!--MD5=[8881bb14b310adb59c8691ad47a85162]
entity wallet_provider_1--><polygon fill="#FEFECE" filter="url(#f6eb3npen71h)" points="223.5,108.4641,233.5,98.4641,376.5,98.4641,376.5,137.532,366.5,147.532,223.5,147.532,223.5,108.4641" style="stroke:#000000;stroke-width:1.5;"/><line style="stroke:#000000;stroke-width:1.5;" x1="366.5" x2="376.5" y1="108.4641" y2="98.4641"/><line style="stroke:#000000;stroke-width:1.5;" x1="223.5" x2="366.5" y1="108.4641" y2="108.4641"/><line style="stroke:#000000;stroke-width:1.5;" x1="366.5" x2="366.5" y1="108.4641" y2="147.532"/><text fill="#000000" font-family="sans-serif" font-size="14" lengthAdjust="spacingAndGlyphs" textLength="113" x="238.5" y="133.43">wallet provider 1</text><!--MD5=[e8869aff20245152dd0570ea6a1d66fc]
entity bob_perun_node--><rect fill="#FEFECE" filter="url(#f6eb3npen71h)" height="44.792" style="stroke:#000000;stroke-width:1.5;" width="122" x="558" y="303.4641"/><polygon fill="#FEFECE" points="663,308.4641,663,322.4641,675,322.4641,675,314.4641,669,308.4641,663,308.4641" style="stroke:#000000;stroke-width:1.5;"/><line style="stroke:#000000;stroke-width:1.5;" x1="669" x2="669" y1="308.4641" y2="314.4641"/><line style="stroke:#000000;stroke-width:1.5;" x1="675" x2="669" y1="314.4641" y2="314.4641"/><text fill="#000000" font-family="sans-serif" font-size="16" font-weight="bold" lengthAdjust="spacingAndGlyphs" textLength="92" x="568" y="333.5681">perun node</text><!--MD5=[e644af3664fcf76345868ead5c8fa9a0]
entity wallet_provider_2--><polygon fill="#FEFECE" filter="url(#f6eb3npen71h)" points="542.5,108.4641,552.5,98.4641,695.5,98.4641,695.5,137.532,685.5,147.532,542.5,147.532,542.5,108.4641" style="stroke:#000000;stroke-width:1.5;"/><line style="stroke:#000000;stroke-width:1.5;" x1="685.5" x2="695.5" y1="108.4641" y2="98.4641"/><line style="stroke:#000000;stroke-width:1.5;" x1="542.5" x2="685.5" y1="108.4641" y2="108.4641"/><line style="stroke:#000000;stroke-width:1.5;" x1="685.5" x2="685.5" y1="108.4641" y2="147.532"/><text fill="#000000" font-family="sans-serif" font-size="14" lengthAdjust="spacingAndGlyphs" textLength="113" x="557.5" y="133.43">wallet provider 2</text><!--MD5=[421d647884c043ce7f89387ec9cf3faa]
entity ID_provider_2--><polygon fill="#FEFECE" filter="url(#f6eb3npen71h)" points="555,192.4641,565,182.4641,683,182.4641,683,221.532,673,231.532,555,231.532,555,192.4641" style="stroke:#000000;stroke-width:1.5;"/><line style="stroke:#000000;stroke-width:1.5;" x1="673" x2="683" y1="192.4641" y2="182.4641"/><line style="stroke:#000000;stroke-width:1.5;" x1="555" x2="673" y1="192.4641" y2="192.4641"/><line style="stroke:#000000;stroke-width:1.5;" x1="673" x2="673" y1="192.4641" y2="231.532"/><text fill="#000000" font-family="sans-serif" font-size="14" lengthAdjust="spacingAndGlyphs" textLength="88" x="570" y="217.43">ID provider 2</text><!--MD5=[f152b445e5bcee5e5394952cb1476aeb]
entity alice--><ellipse cx="21.5" cy="325.4641" fill="#FEFECE" filter="url(#f6eb3npen71h)" rx="8" ry="8" style="stroke:#A80036;stroke-width:1.5;"/><path d="M21.5,333.4641 L21.5,360.4641 M8.5,341.4641 L34.5,341.4641 M21.5,360.4641 L8.5,375.4641 M21.5,360.4641 L34.5,375.4641 " fill="none" filter="url(#f6eb3npen71h)" style="stroke:#A80036;stroke-width:1.5;"/><text fill="#000000" font-family="sans-serif" font-size="14" lengthAdjust="spacingAndGlyphs" textLength="31" x="6" y="395.93">alice</text><!--MD5=[8e36e8bcb951c7385246966ef326582c]
entity bob--><ellipse cx="894.5" cy="294.4641" fill="#FEFECE" filter="url(#f6eb3npen71h)" rx="8" ry="8" style="stroke:#A80036;stroke-width:1.5;"/><path d="M894.5,302.4641 L894.5,329.4641 M881.5,310.4641 L907.5,310.4641 M894.5,329.4641 L881.5,344.4641 M894.5,329.4641 L907.5,344.4641 " fill="none" filter="url(#f6eb3npen71h)" style="stroke:#A80036;stroke-width:1.5;"/><text fill="#000000" font-family="sans-serif" font-size="14" lengthAdjust="spacingAndGlyphs" textLength="26" x="881.5" y="364.93">bob</text><!--MD5=[eade16dce9e752370fa6e07433544ee1]
entity blockchain_node_2--><polygon fill="#FEFECE" filter="url(#f6eb3npen71h)" points="538,430.4641,548,420.4641,700,420.4641,700,459.532,690,469.532,538,469.532,538,430.4641" style="stroke:#000000;stroke-width:1.5;"/><line style="stroke:#000000;stroke-width:1.5;" x1="690" x2="700" y1="430.4641" y2="420.4641"/><line style="stroke:#000000;stroke-width:1.5;" x1="538" x2="690" y1="430.4641" y2="430.4641"/><line style="stroke:#000000;stroke-width:1.5;" x1="690" x2="690" y1="430.4641" y2="469.532"/><text fill="#000000" font-family="sans-serif" font-size="14" lengthAdjust="spacingAndGlyphs" textLength="122" x="553" y="455.43">blockchain node 2</text><!--MD5=[a9e8d8a769aaefcfb8dabadafe7360df]
entity blockchain_node_x--><polygon fill="#FEFECE" filter="url(#f6eb3npen71h)" points="219.5,514.4641,229.5,504.4641,380.5,504.4641,380.5,543.532,370.5,553.532,219.5,553.532,219.5,514.4641" style="stroke:#000000;stroke-width:1.5;"/><line style="stroke:#000000;stroke-width:1.5;" x1="370.5" x2="380.5" y1="514.4641" y2="504.4641"/><line style="stroke:#000000;stroke-width:1.5;" x1="219.5" x2="370.5" y1="514.4641" y2="514.4641"/><line style="stroke:#000000;stroke-width:1.5;" x1="370.5" x2="370.5" y1="514.4641" y2="553.532"/><text fill="#000000" font-family="sans-serif" font-size="14" lengthAdjust="spacingAndGlyphs" textLength="121" x="234.5" y="539.43">blockchain node x</text><!--MD5=[a6a2cc59831283e5adb024b172ddf4a3]
entity blockchain_node_y--><polygon fill="#FEFECE" filter="url(#f6eb3npen71h)" points="538.5,514.4641,548.5,504.4641,699.5,504.4641,699.5,543.532,689.5,553.532,538.5,553.532,538.5,514.4641" style="stroke:#000000;stroke-width:1.5;"/><line style="stroke:#000000;stroke-width:1.5;" x1="689.5" x2="699.5" y1="514.4641" y2="504.4641"/><line style="stroke:#000000;stroke-width:1.5;" x1="538.5" x2="689.5" y1="514.4641" y2="514.4641"/><line style="stroke:#000000;stroke-width:1.5;" x1="689.5" x2="689.5" y1="514.4641" y2="553.532"/><text fill="#000000" font-family="sans-serif" font-size="14" lengthAdjust="spacingAndGlyphs" textLength="121" x="553.5" y="539.43">blockchain node y</text><!--MD5=[7e220c10d93ab65c93e741ee055de556]
link alice to alice_perun_node--><path d="M42.36,353.5041 C50.03,351.8941 58.89,350.1841 67,348.9641 C123,340.5441 187.08,334.4641 233.68,330.6741 " fill="none" id="alice-alice_perun_node" style="stroke:#A80036;stroke-width:1.0;"/><polygon fill="#A80036" points="238.71,330.2641,229.4189,326.9967,233.726,330.664,230.0587,334.971,238.71,330.2641" style="stroke:#A80036;stroke-width:1.0;"/><polygon fill="#A80036" points="37.27,354.5841,46.9067,356.6172,42.1598,353.5404,45.2367,348.7935,37.27,354.5841" style="stroke:#A80036;stroke-width:1.0;"/><text fill="#000000" font-family="sans-serif" font-size="13" lengthAdjust="spacingAndGlyphs" textLength="61" x="96.5" y="294.8611">«user api»</text><text fill="#000000" font-family="sans-serif" font-size="13" lengthAdjust="spacingAndGlyphs" textLength="118" x="68" y="312.5671">(untrusted channel)</text><text fill="#000000" font-family="sans-serif" font-size="13" lengthAdjust="spacingAndGlyphs" textLength="27" x="113.5" y="330.2731">gprc</text><!--MD5=[7e220c10d93ab65c93e741ee055de556]
link alice to alice_perun_node--><path d="M37.02,384.2041 C44.46,394.9041 54.58,406.1041 67,411.9641 C115.24,434.7141 138.35,433.8141 187,411.9641 C191.88,409.7741 191.05,406.5741 195,402.9641 C215.43,384.2841 240.29,365.7441 260.58,351.5341 " fill="none" id="alice-to-alice_perun_node" style="stroke:#A80036;stroke-width:1.0;"/><polygon fill="#A80036" points="264.84,348.5741,255.1691,350.438,260.7378,351.4328,259.743,357.0015,264.84,348.5741" style="stroke:#A80036;stroke-width:1.0;"/><text fill="#000000" font-family="sans-serif" font-size="13" lengthAdjust="spacingAndGlyphs" textLength="77" x="88.5" y="371.8611">«config files»</text><text fill="#000000" font-family="sans-serif" font-size="13" lengthAdjust="spacingAndGlyphs" textLength="102" x="76" y="389.5671">(trusted channel)</text><text fill="#000000" font-family="sans-serif" font-size="13" lengthAdjust="spacingAndGlyphs" textLength="104" x="75" y="407.2731">file system access</text><!--MD5=[84404f8df726d8f9280495366d38cd30]
link alice_perun_node to ID_provider_1--><path d="M300,303.3041 C300,284.4041 300,257.3341 300,236.6941 " fill="none" id="alice_perun_node-to-ID_provider_1" style="stroke:#A80036;stroke-width:1.0;"/><polygon fill="#A80036" points="300,231.5941,296,240.5941,300,236.5941,304,240.5941,300,231.5941" style="stroke:#A80036;stroke-width:1.0;"/><text fill="#000000" font-family="sans-serif" font-size="13" lengthAdjust="spacingAndGlyphs" textLength="77" x="240" y="263.8611">«peer ID list»</text><text fill="#000000" font-family="sans-serif" font-size="13" lengthAdjust="spacingAndGlyphs" textLength="104" x="226.5" y="281.5671">file system access</text><!--MD5=[00485678ef5ba8ed1559a4e6d5bb0624]
link alice_perun_node to wallet_provider_1--><path d="M238.77,304.6241 C166.38,276.0841 61.38,222.2441 109,163.4641 C134.73,131.7041 178.6,120.8741 217.81,118.3141 " fill="none" id="alice_perun_node-to-wallet_provider_1" style="stroke:#A80036;stroke-width:1.0;"/><polygon fill="#A80036" points="223.06,118.0141,213.8459,114.5356,218.0682,118.3002,214.3036,122.5225,223.06,118.0141" style="stroke:#A80036;stroke-width:1.0;"/><text fill="#000000" font-family="sans-serif" font-size="13" lengthAdjust="spacingAndGlyphs" textLength="49" x="102.5" y="178.3611">«wallet»</text><text fill="#000000" font-family="sans-serif" font-size="13" lengthAdjust="spacingAndGlyphs" textLength="59" x="97.5" y="196.0671">ethereum</text><text fill="#000000" font-family="sans-serif" font-size="13" lengthAdjust="spacingAndGlyphs" textLength="90" x="82" y="213.7731">keystore wallet</text><!--MD5=[099bf16e623dd2e14fd900ddd3c24f8b]
link alice_perun_node to bob_perun_node--><path d="M366.4,325.9641 C420.9,325.9641 498.16,325.9641 552.65,325.9641 " fill="none" id="alice_perun_node-bob_perun_node" style="stroke:#A80036;stroke-width:1.0;"/><polygon fill="#A80036" points="557.85,325.9641,548.85,321.9641,552.85,325.9641,548.85,329.9641,557.85,325.9641" style="stroke:#A80036;stroke-width:1.0;"/><polygon fill="#A80036" points="361.37,325.9641,370.37,329.9641,366.37,325.9641,370.37,321.9641,361.37,325.9641" style="stroke:#A80036;stroke-width:1.0;"/><text fill="#000000" font-family="sans-serif" font-size="13" lengthAdjust="spacingAndGlyphs" textLength="93" x="414" y="303.8611">«wire protocol»</text><text fill="#000000" font-family="sans-serif" font-size="13" lengthAdjust="spacingAndGlyphs" textLength="19" x="451" y="321.5671">tcp</text><!--MD5=[30aabf77088569a03e862692fe4dce96]
link bob_perun_node to bob--><path d="M685.45,318.9441 C731.57,315.1541 794.7,312.3041 850,317.9641 C858.23,318.8041 867.2,320.5241 874.84,322.2341 " fill="none" id="bob_perun_node-bob" style="stroke:#A80036;stroke-width:1.0;"/><polygon fill="#A80036" points="879.9,323.4041,872.035,317.4761,875.029,322.2756,870.2294,325.2696,879.9,323.4041" style="stroke:#A80036;stroke-width:1.0;"/><polygon fill="#A80036" points="680.2,319.3841,689.5003,322.6251,685.1828,318.9701,688.8379,314.6526,680.2,319.3841" style="stroke:#A80036;stroke-width:1.0;"/><text fill="#000000" font-family="sans-serif" font-size="13" lengthAdjust="spacingAndGlyphs" textLength="61" x="759.5" y="274.8611">«user api»</text><text fill="#000000" font-family="sans-serif" font-size="13" lengthAdjust="spacingAndGlyphs" textLength="118" x="731" y="292.5671">(untrusted channel)</text><text fill="#000000" font-family="sans-serif" font-size="13" lengthAdjust="spacingAndGlyphs" textLength="27" x="776.5" y="310.2731">gprc</text><!--MD5=[0c63b5ecf73103cc91353262115677c6]
reverse link bob_perun_node to bob--><path d="M659.07,351.0741 C679.37,362.6441 705.08,375.0841 730,380.9641 C781.91,393.2141 801.89,403.9841 850,380.9641 C862.49,374.9841 872.53,363.4841 879.81,352.6241 " fill="none" id="bob_perun_node-backto-bob" style="stroke:#A80036;stroke-width:1.0;"/><polygon fill="#A80036" points="654.56,348.4741,660.353,356.4391,658.8897,350.9748,664.3541,349.5115,654.56,348.4741" style="stroke:#A80036;stroke-width:1.0;"/><text fill="#000000" font-family="sans-serif" font-size="13" lengthAdjust="spacingAndGlyphs" textLength="77" x="751.5" y="340.8611">«config files»</text><text fill="#000000" font-family="sans-serif" font-size="13" lengthAdjust="spacingAndGlyphs" textLength="102" x="739" y="358.5671">(trusted channel)</text><text fill="#000000" font-family="sans-serif" font-size="13" lengthAdjust="spacingAndGlyphs" textLength="104" x="738" y="376.2731">file system access</text><!--MD5=[03bd0305716b62cb96e5a29c3d692fb4]
link bob_perun_node to wallet_provider_2--><path d="M557.69,315.1841 C516.86,304.4841 466.16,283.5841 440.5,243.4641 C427.33,222.8741 426.51,208.5041 440.5,188.4641 C462.48,156.9941 501.32,140.5941 537.16,132.0741 " fill="none" id="bob_perun_node-to-wallet_provider_2" style="stroke:#A80036;stroke-width:1.0;"/><polygon fill="#A80036" points="542.43,130.8741,532.77,128.9547,537.5528,131.9754,534.5321,136.7582,542.43,130.8741" style="stroke:#A80036;stroke-width:1.0;"/><text fill="#000000" font-family="sans-serif" font-size="13" lengthAdjust="spacingAndGlyphs" textLength="49" x="436" y="203.3611">«wallet»</text><text fill="#000000" font-family="sans-serif" font-size="13" lengthAdjust="spacingAndGlyphs" textLength="59" x="431" y="221.0671">ethereum</text><text fill="#000000" font-family="sans-serif" font-size="13" lengthAdjust="spacingAndGlyphs" textLength="90" x="415.5" y="238.7731">keystore wallet</text><!--MD5=[7ddc10d3db4ab811aff07217103f5b7e]
link bob_perun_node to ID_provider_2--><path d="M619,303.3041 C619,284.4041 619,257.3341 619,236.6941 " fill="none" id="bob_perun_node-to-ID_provider_2" style="stroke:#A80036;stroke-width:1.0;"/><polygon fill="#A80036" points="619,231.5941,615,240.5941,619,236.5941,623,240.5941,619,231.5941" style="stroke:#A80036;stroke-width:1.0;"/><text fill="#000000" font-family="sans-serif" font-size="13" lengthAdjust="spacingAndGlyphs" textLength="77" x="559" y="263.8611">«peer ID list»</text><text fill="#000000" font-family="sans-serif" font-size="13" lengthAdjust="spacingAndGlyphs" textLength="104" x="545.5" y="281.5671">file system access</text><!--MD5=[9091f8e1c3b09fabb9dc52844ace5d80]
link alice_perun_node to blockchain_node_1--><path d="M300,353.6241 C300,372.0741 300,396.3241 300,415.2041 " fill="none" id="alice_perun_node-blockchain_node_1" style="stroke:#A80036;stroke-width:1.0;"/><polygon fill="#A80036" points="300,420.3041,304,411.3041,300,415.3041,296,411.3041,300,420.3041" style="stroke:#A80036;stroke-width:1.0;"/><polygon fill="#A80036" points="300,348.5741,296,357.5741,300,353.5741,304,357.5741,300,348.5741" style="stroke:#A80036;stroke-width:1.0;"/><text fill="#000000" font-family="sans-serif" font-size="13" lengthAdjust="spacingAndGlyphs" textLength="134" x="211.5" y="380.8611">«blockchain node rpc»</text><text fill="#000000" font-family="sans-serif" font-size="13" lengthAdjust="spacingAndGlyphs" textLength="64" x="246.5" y="398.5671">websocket</text><!--MD5=[37fd6ee68b54bd2b13af46a8bf8fc4e6]
link bob_perun_node to blockchain_node_2--><path d="M619,353.6241 C619,372.0741 619,396.3241 619,415.2041 " fill="none" id="bob_perun_node-blockchain_node_2" style="stroke:#A80036;stroke-width:1.0;"/><polygon fill="#A80036" points="619,420.3041,623,411.3041,619,415.3041,615,411.3041,619,420.3041" style="stroke:#A80036;stroke-width:1.0;"/><polygon fill="#A80036" points="619,348.5741,615,357.5741,619,353.5741,623,357.5741,619,348.5741" style="stroke:#A80036;stroke-width:1.0;"/><text fill="#000000" font-family="sans-serif" font-size="13" lengthAdjust="spacingAndGlyphs" textLength="134" x="530.5" y="380.8611">«blockchain node rpc»</text><text fill="#000000" font-family="sans-serif" font-size="13" lengthAdjust="spacingAndGlyphs" textLength="64" x="565.5" y="398.5671">websocket</text><!--MD5=[88c1a43e524a099b3bdaa27c12c6accb]
link blockchain_node_1 to blockchain_node_2--><path d="M386.51,444.9641 C431.87,444.9641 487.44,444.9641 532.76,444.9641 " fill="none" id="blockchain_node_1-blockchain_node_2" style="stroke:#A80036;stroke-width:1.0;"/><polygon fill="#A80036" points="537.96,444.9641,528.96,440.9641,532.96,444.9641,528.96,448.9641,537.96,444.9641" style="stroke:#A80036;stroke-width:1.0;"/><polygon fill="#A80036" points="381.4,444.9641,390.4,448.9641,386.4,444.9641,390.4,440.9641,381.4,444.9641" style="stroke:#A80036;stroke-width:1.0;"/><!--MD5=[d4ac8ec43b86c43c78ebe7e9c4196542]
link blockchain_node_1 to blockchain_node_x--><path d="M300,474.6441 C300,482.8241 300,491.0041 300,499.1941 " fill="none" id="blockchain_node_1-blockchain_node_x" style="stroke:#A80036;stroke-width:1.0;"/><polygon fill="#A80036" points="300,504.3541,304,495.3541,300,499.3541,296,495.3541,300,504.3541" style="stroke:#A80036;stroke-width:1.0;"/><polygon fill="#A80036" points="300,469.5541,296,478.5541,300,474.5541,304,478.5541,300,469.5541" style="stroke:#A80036;stroke-width:1.0;"/><!--MD5=[8137df9f43489c6f48954638e4d049f8]
link blockchain_node_2 to blockchain_node_y--><path d="M619,474.6441 C619,482.8241 619,491.0041 619,499.1941 " fill="none" id="blockchain_node_2-blockchain_node_y" style="stroke:#A80036;stroke-width:1.0;"/><polygon fill="#A80036" points="619,504.3541,623,495.3541,619,499.3541,615,495.3541,619,504.3541" style="stroke:#A80036;stroke-width:1.0;"/><polygon fill="#A80036" points="619,469.5541,615,478.5541,619,474.5541,623,478.5541,619,469.5541" style="stroke:#A80036;stroke-width:1.0;"/><!--MD5=[91a0416f07cd5dfca55711a0fe643e1c]
link blockchain_node_x to blockchain_node_y--><path d="M385.72,528.9641 C431.35,528.9641 487.5,528.9641 533.15,528.9641 " fill="none" id="blockchain_node_x-blockchain_node_y" style="stroke:#A80036;stroke-width:1.0;"/><polygon fill="#A80036" points="538.38,528.9641,529.38,524.9641,533.38,528.9641,529.38,532.9641,538.38,528.9641" style="stroke:#A80036;stroke-width:1.0;"/><polygon fill="#A80036" points="380.58,528.9641,389.58,532.9641,385.58,528.9641,389.58,524.9641,380.58,528.9641" style="stroke:#A80036;stroke-width:1.0;"/><!--MD5=[ce55c776b1453b95a1914e89ecdfb782]
link blockchain_node_1 to blockchain_node_y--><path d="M386.52,467.6241 C432.06,479.6941 487.89,494.4841 533.31,506.5241 " fill="none" id="blockchain_node_1-blockchain_node_y" style="stroke:#A80036;stroke-width:1.0;"/><polygon fill="#A80036" points="538.23,507.8241,530.5623,501.643,533.3984,506.5376,528.5038,509.3737,538.23,507.8241" style="stroke:#A80036;stroke-width:1.0;"/><polygon fill="#A80036" points="381.4,466.2741,389.0893,472.4284,386.2361,467.5438,391.1207,464.6906,381.4,466.2741" style="stroke:#A80036;stroke-width:1.0;"/><!--MD5=[d5f35830fff561921205fb610c9e7eba]
link blockchain_node_x to blockchain_node_2--><path d="M385.7,506.5241 C431.25,494.4541 487.27,479.6041 532.89,467.5141 " fill="none" id="blockchain_node_x-blockchain_node_2" style="stroke:#A80036;stroke-width:1.0;"/><polygon fill="#A80036" points="537.83,466.2041,528.1049,464.6474,532.9974,467.4871,530.1577,472.3796,537.83,466.2041" style="stroke:#A80036;stroke-width:1.0;"/><polygon fill="#A80036" points="380.58,507.8741,390.3019,509.4505,385.4152,506.6009,388.2648,501.7142,380.58,507.8741" style="stroke:#A80036;stroke-width:1.0;"/><rect fill="#FFFFFF" height="29.0679" rx="5" ry="5" style="stroke:#000000;stroke-width:1.0;" width="551" x="174.75" y="567.532"/><text fill="#000000" font-family="sans-serif" font-size="14" lengthAdjust="spacingAndGlyphs" textLength="539" x="180.75" y="587.498">Note : The blockchain node can be run either locally or in a remote environment</text><!--MD5=[f6f5bcfe2e7a6198ec9b2591018a37a9]
@startuml deployment_diagram

title =Deployment Diagram

left to right direction
skinparam {
 DefaultTextAlignment center
 LegendBackgroundColor white
}

actor alice
actor bob

node "alice's computer" <<device>> {
artifact "==perun node"  as alice_perun_node
node "blockchain node 1" as blockchain_node_1
node "ID provider 1" as ID_provider_1
node "wallet provider 1" as wallet_provider_1
}

node "bob's computer" <<device>> {
artifact "==perun node" as bob_perun_node
node "wallet provider 2" as wallet_provider_2
node "ID provider 2" as ID_provider_2
}



node "blockchain node 2" as blockchain_node_2
node "blockchain node x" as blockchain_node_x
node "blockchain node y" as blockchain_node_y

' since left to right direction has be defined,
' the meaninig of keywords change as below
' Keyword => actual meaning
' up    => left
' down  => right
' left  => up
' right => down

alice<-down->alice_perun_node : <<user api>>\n(untrusted channel)\ngprc
alice-down->alice_perun_node : <<config files>>\n(trusted channel)\nfile system access
ID_provider_1<-left-alice_perun_node: <<peer ID list>>\nfile system access
wallet_provider_1<-left-alice_perun_node: <<wallet>>\nethereum\nkeystore wallet

alice_perun_node<-down->bob_perun_node : <<wire protocol>>\ntcp

bob_perun_node<-down->bob : <<user api>>\n(untrusted channel)\ngprc
bob_perun_node<-down-bob : <<config files>>\n(trusted channel)\nfile system access
bob_perun_node-right->wallet_provider_2: <<wallet>>\nethereum\nkeystore wallet
bob_perun_node-right->ID_provider_2: <<peer ID list>>\nfile system access

alice_perun_node<-right->blockchain_node_1 : <<blockchain node rpc>>\nwebsocket
bob_perun_node<-right->blockchain_node_2 : <<blockchain node rpc>>\nwebsocket

' p2p connections in blockchain network
blockchain_node_1<-down->blockchain_node_2
blockchain_node_1<-right->blockchain_node_x
blockchain_node_2<-right->blockchain_node_y
blockchain_node_x<-down->blockchain_node_y
blockchain_node_1<-right->blockchain_node_y
blockchain_node_x<-right->blockchain_node_2

legend
Note : The blockchain node can be run either locally or in a remote environment
endlegend

@enduml

@startuml deployment_diagram

title =Deployment Diagram

left to right direction
skinparam {
 DefaultTextAlignment center
 LegendBackgroundColor white
}

actor alice
actor bob

node "alice's computer" <<device>> {
artifact "==perun node"  as alice_perun_node
node "blockchain node 1" as blockchain_node_1
node "ID provider 1" as ID_provider_1
node "wallet provider 1" as wallet_provider_1
}

node "bob's computer" <<device>> {
artifact "==perun node" as bob_perun_node
node "wallet provider 2" as wallet_provider_2
node "ID provider 2" as ID_provider_2
}



node "blockchain node 2" as blockchain_node_2
node "blockchain node x" as blockchain_node_x
node "blockchain node y" as blockchain_node_y


alice<-down->alice_perun_node : <<user api>>\n(untrusted channel)\ngprc
alice-down->alice_perun_node : <<config files>>\n(trusted channel)\nfile system access
ID_provider_1<-left-alice_perun_node: <<peer ID list>>\nfile system access
wallet_provider_1<-left-alice_perun_node: <<wallet>>\nethereum\nkeystore wallet

alice_perun_node<-down->bob_perun_node : <<wire protocol>>\ntcp

bob_perun_node<-down->bob : <<user api>>\n(untrusted channel)\ngprc
bob_perun_node<-down-bob : <<config files>>\n(trusted channel)\nfile system access
bob_perun_node-right->wallet_provider_2: <<wallet>>\nethereum\nkeystore wallet
bob_perun_node-right->ID_provider_2: <<peer ID list>>\nfile system access

alice_perun_node<-right->blockchain_node_1 : <<blockchain node rpc>>\nwebsocket
bob_perun_node<-right->blockchain_node_2 : <<blockchain node rpc>>\nwebsocket

blockchain_node_1<-down->blockchain_node_2
blockchain_node_1<-right->blockchain_node_x
blockchain_node_2<-right->blockchain_node_y
blockchain_node_x<-down->blockchain_node_y
blockchain_node_1<-right->blockchain_node_y
blockchain_node_x<-right->blockchain_node_2

legend
Note : The blockchain node can be run either locally or in a remote environment
endlegend

@enduml

PlantUML version 1.2020.21(Mon Nov 30 17:40:11 CET 2020)
(GPL source distribution)
Java Runtime: OpenJDK Runtime Environment
JVM: OpenJDK 64-Bit Server VM
Default Encoding: UTF-8
Language: en
Country: IN
--></g></svg>