<?xml version="1.0" encoding="UTF-8" standalone="no"?><svg xmlns="http://www.w3.org/2000/svg" xmlns:xlink="http://www.w3.org/1999/xlink" contentScriptType="application/ecmascript" contentStyleType="text/css" height="510px" preserveAspectRatio="none" style="width:837px;height:510px;" version="1.1" viewBox="0 0 837 510" width="837px" zoomAndPan="magnify"><defs><filter height="300%" id="f9msyczachtf8" width="300%" x="-1" y="-1"><feGaussianBlur result="blurOut" stdDeviation="2.0"/><feColorMatrix in="blurOut" result="blurOut2" type="matrix" values="0 0 0 0 0 0 0 0 0 0 0 0 0 0 0 0 0 0 .4 0"/><feOffset dx="4.0" dy="4.0" in="blurOut2" result="blurOut3"/><feBlend in="SourceGraphic" in2="blurOut3" mode="normal"/></filter></defs><g><text fill="#000000" font-family="sans-serif" font-size="18" lengthAdjust="spacingAndGlyphs" textLength="389" x="217.5" y="16.708">Activity Diagram - User initalizing the node.</text><!--MD5=[3320c4e17d84b5275ff7273532b2725a]
cluster computer--><polygon fill="#FFFFFF" filter="url(#f9msyczachtf8)" points="84,75.2531,166,75.2531,173,97.55,820,97.55,820,367.2531,84,367.2531,84,75.2531" style="stroke:#000000;stroke-width:1.5;"/><line style="stroke:#000000;stroke-width:1.5;" x1="84" x2="173" y1="97.55" y2="97.55"/><text fill="#000000" font-family="sans-serif" font-size="14" font-weight="bold" lengthAdjust="spacingAndGlyphs" textLength="76" x="88" y="90.2482">computer</text><ellipse cx="220.0222" cy="231.0164" fill="#FEFECE" filter="url(#f9msyczachtf8)" rx="120.0222" ry="36.2633" style="stroke:#A80036;stroke-width:1.5;"/><text fill="#000000" font-family="sans-serif" font-size="14" lengthAdjust="spacingAndGlyphs" textLength="172" x="134.0222" y="221.2551">Prepare blockchain node</text><text fill="#000000" font-family="sans-serif" font-size="14" lengthAdjust="spacingAndGlyphs" textLength="147" x="146.5222" y="237.5519">[Run own instance or</text><text fill="#000000" font-family="sans-serif" font-size="14" lengthAdjust="spacingAndGlyphs" textLength="143" x="148.5222" y="253.8488">use external service]</text><ellipse cx="219.9285" cy="135.376" fill="#FEFECE" filter="url(#f9msyczachtf8)" rx="51.4285" ry="24.6228" style="stroke:#A80036;stroke-width:1.5;"/><text fill="#000000" font-family="sans-serif" font-size="14" lengthAdjust="spacingAndGlyphs" textLength="51" x="194.4285" y="129.7903">Provide</text><text fill="#000000" font-family="sans-serif" font-size="14" lengthAdjust="spacingAndGlyphs" textLength="73" x="183.4285" y="146.0872">peer ID file</text><ellipse cx="220.0879" cy="327.4168" fill="#FEFECE" filter="url(#f9msyczachtf8)" rx="62.0879" ry="24.1637" style="stroke:#A80036;stroke-width:1.5;"/><text fill="#000000" font-family="sans-serif" font-size="14" lengthAdjust="spacingAndGlyphs" textLength="51" x="194.5879" y="321.1223">Provide</text><text fill="#000000" font-family="sans-serif" font-size="14" lengthAdjust="spacingAndGlyphs" textLength="91" x="174.5879" y="337.4191">keystore files</text><ellipse cx="500.8093" cy="231.221" fill="#FEFECE" filter="url(#f9msyczachtf8)" rx="46.8093" ry="24.9678" style="stroke:#A80036;stroke-width:1.5;"/><text fill="#000000" font-family="sans-serif" font-size="14" lengthAdjust="spacingAndGlyphs" textLength="51" x="475.3093" y="226.1549">Provide</text><text fill="#000000" font-family="sans-serif" font-size="14" lengthAdjust="spacingAndGlyphs" textLength="65" x="468.3093" y="242.4518">config file</text><ellipse cx="733.2177" cy="279.3408" fill="#FEFECE" filter="url(#f9msyczachtf8)" rx="71.2177" ry="23.5877" style="stroke:#A80036;stroke-width:1.5;"/><text fill="#000000" font-family="sans-serif" font-size="14" lengthAdjust="spacingAndGlyphs" textLength="32" x="717.2177" y="272.1243">Start</text><text fill="#000000" font-family="sans-serif" font-size="14" lengthAdjust="spacingAndGlyphs" textLength="108" x="679.2177" y="288.4212">the perun node</text><!--MD5=[f152b445e5bcee5e5394952cb1476aeb]
entity alice--><ellipse cx="21.5" cy="200.2531" fill="#FEFECE" filter="url(#f9msyczachtf8)" rx="8" ry="8" style="stroke:#A80036;stroke-width:1.5;"/><path d="M21.5,208.2531 L21.5,235.2531 M8.5,216.2531 L34.5,216.2531 M21.5,235.2531 L8.5,250.2531 M21.5,235.2531 L34.5,250.2531 " fill="none" filter="url(#f9msyczachtf8)" style="stroke:#A80036;stroke-width:1.5;"/><text fill="#000000" font-family="sans-serif" font-size="14" lengthAdjust="spacingAndGlyphs" textLength="31" x="6" y="268.7482">alice</text><!--MD5=[b26f0dd3d2b299230f0d626c8196fb81]
reverse link prep_bc to prov_cnf--><path d="M345.32,231.2531 C383.89,231.2531 424.04,231.2531 453.76,231.2531 " fill="none" id="prep_bc-backto-prov_cnf" style="stroke:#A80036;stroke-width:2.0;stroke-dasharray:7.0,7.0;"/><polygon fill="#A80036" points="340.13,231.2531,349.13,235.2531,345.13,231.2531,349.13,227.2531,340.13,231.2531" style="stroke:#A80036;stroke-width:2.0;"/><text fill="#000000" font-family="sans-serif" font-size="13" lengthAdjust="spacingAndGlyphs" textLength="52" x="371" y="227.32">requires</text><!--MD5=[02374aeed770062597cd4ef9be56d893]
reverse link prov_cont to prov_cnf--><path d="M266.97,151.0731 C321.08,169.6931 409.99,200.2831 460.92,217.8031 " fill="none" id="prov_cont-backto-prov_cnf" style="stroke:#A80036;stroke-width:2.0;stroke-dasharray:7.0,7.0;"/><polygon fill="#A80036" points="262.17,149.4231,269.395,156.1163,266.9019,151.0385,271.9797,148.5454,262.17,149.4231" style="stroke:#A80036;stroke-width:2.0;"/><text fill="#000000" font-family="sans-serif" font-size="13" lengthAdjust="spacingAndGlyphs" textLength="52" x="371" y="185.32">requires</text><!--MD5=[99cf1719fa70f492cd11c54bd394f1ff]
reverse link prov_ks to prov_cnf--><path d="M271.92,309.7331 C326.42,290.9831 411.69,261.6431 461.07,244.6531 " fill="none" id="prov_ks-backto-prov_cnf" style="stroke:#A80036;stroke-width:2.0;stroke-dasharray:7.0,7.0;"/><polygon fill="#A80036" points="267.07,311.4031,276.882,312.2544,271.7975,309.7749,274.2769,304.6904,267.07,311.4031" style="stroke:#A80036;stroke-width:2.0;"/><text fill="#000000" font-family="sans-serif" font-size="13" lengthAdjust="spacingAndGlyphs" textLength="52" x="371" y="256.32">requires</text><!--MD5=[f84394e7cdd3f7f117f6d4d73d20a9b1]
reverse link prov_cnf to start_perun--><path d="M550.14,241.3031 C585.68,248.7231 634.29,258.8631 672.3,266.7931 " fill="none" id="prov_cnf-backto-start_perun" style="stroke:#A80036;stroke-width:2.0;stroke-dasharray:7.0,7.0;"/><polygon fill="#A80036" points="544.99,240.2231,552.9924,245.9644,549.8862,241.2366,554.614,238.1305,544.99,240.2231" style="stroke:#A80036;stroke-width:2.0;"/><text fill="#000000" font-family="sans-serif" font-size="13" lengthAdjust="spacingAndGlyphs" textLength="52" x="579" y="244.32">requires</text><!--MD5=[a65e696f2a4aec7bcce27d0752484d1e]
link alice to prep_bc--><path d="M37.27,231.2531 C50.55,231.2531 71.45,231.2531 94.42,231.2531 " fill="none" id="alice-to-prep_bc" style="stroke:#A80036;stroke-width:2.0;"/><polygon fill="#A80036" points="99.67,231.2531,90.67,227.2531,94.67,231.2531,90.67,235.2531,99.67,231.2531" style="stroke:#A80036;stroke-width:2.0;"/><!--MD5=[7bab052ddb0fadf5d0f1a63af3b551ba]
link alice to prov_cont--><path d="M37.02,212.3231 C46.87,200.6831 60.81,186.3131 76,177.2531 C103.4,160.9031 137.59,150.5631 165.67,144.2331 " fill="none" id="alice-to-prov_cont" style="stroke:#A80036;stroke-width:2.0;"/><polygon fill="#A80036" points="170.83,143.0931,161.1821,141.1138,165.9461,144.1642,162.8957,148.9281,170.83,143.0931" style="stroke:#A80036;stroke-width:2.0;"/><!--MD5=[208dfb4ede5ff98a09a45f4018fa6f5e]
link alice to prov_cnf--><path d="M26.12,190.7431 C31.38,158.3831 44.3,114.9631 76,93.2531 C172.81,26.9531 229.81,52.9231 340,93.2531 C399.58,115.0631 451.69,170.4031 479.23,204.0031 " fill="none" id="alice-to-prov_cnf" style="stroke:#A80036;stroke-width:2.0;"/><polygon fill="#A80036" points="482.46,207.9931,479.8891,198.4857,479.307,204.1126,473.6802,203.5305,482.46,207.9931" style="stroke:#A80036;stroke-width:2.0;"/><!--MD5=[348d558fb271034b78e07d4760e57270]
link alice to prov_ks--><path d="M37.02,250.1831 C46.87,261.8231 60.81,276.1931 76,285.2531 C101,300.1631 131.64,310.0831 158.14,316.5131 " fill="none" id="alice-to-prov_ks" style="stroke:#A80036;stroke-width:2.0;"/><polygon fill="#A80036" points="163.04,317.6731,155.212,311.6963,158.1761,316.5144,153.358,319.4785,163.04,317.6731" style="stroke:#A80036;stroke-width:2.0;"/><!--MD5=[727aa16fa58592a87876a19fadfc7666]
link alice to start_perun--><path d="M26.26,271.8031 C31.61,303.9031 44.58,346.7931 76,368.2531 C273.28,503.0031 582.7,360.2431 692.07,301.8031 " fill="none" id="alice-to-start_perun" style="stroke:#A80036;stroke-width:2.0;"/><polygon fill="#A80036" points="696.51,299.4231,686.6896,300.1719,692.1086,301.7953,690.4852,307.2142,696.51,299.4231" style="stroke:#A80036;stroke-width:2.0;"/><!--MD5=[0faef7d17f2a91935aba14d5852c3d70]
@startuml act_node_init
Title Activity Diagram - User initalizing the node.

skinparam sequence {
    messageAlign center
    ArrowThickness 2
    BoxBorderColor Sienna
    BoxBackgroundColor SeaShell
    GroupBodyBackgroundColor transparent
    NoteTextAlignment center
    DefaultTextAlignment center
}

actor alice

left to right direction

package computer {
    (Prepare blockchain node\n[Run own instance or\nuse external service]) as prep_bc
    (Provide\npeer ID file) as prov_cont
    (Provide\nkeystore files) as prov_ks
    (Provide\nconfig file) as prov_cnf
    (Start\nthe perun node) as start_perun
}

prov_cnf .up.> prep_bc: requires
prov_cnf .up.> prov_cont: requires
prov_cnf .up.> prov_ks: requires
start_perun .up.> prov_cnf: requires

alice -right-> prep_bc
alice -down-> prov_cont
alice -down-> prov_cnf
alice -down-> prov_ks
alice -right-> start_perun

@enduml

PlantUML version 1.2020.21(Mon Nov 30 16:40:11 UTC 2020)
(GPL source distribution)
Java Runtime: OpenJDK Runtime Environment
JVM: OpenJDK 64-Bit Server VM
Default Encoding: UTF-8
Language: en
Country: null
--></g></svg>