<?xml version="1.0" encoding="UTF-8" standalone="no"?><svg xmlns="http://www.w3.org/2000/svg" xmlns:xlink="http://www.w3.org/1999/xlink" contentScriptType="application/ecmascript" contentStyleType="text/css" height="271px" preserveAspectRatio="none" style="width:344px;height:271px;" version="1.1" viewBox="0 0 344 271" width="344px" zoomAndPan="magnify"><defs><filter height="300%" id="f9tg20ymhmply" width="300%" x="-1" y="-1"><feGaussianBlur result="blurOut" stdDeviation="2.0"/><feColorMatrix in="blurOut" result="blurOut2" type="matrix" values="0 0 0 0 0 0 0 0 0 0 0 0 0 0 0 0 0 0 .4 0"/><feOffset dx="4.0" dy="4.0" in="blurOut2" result="blurOut3"/><feBlend in="SourceGraphic" in2="blurOut3" mode="normal"/></filter></defs><g><line style="stroke:#A80036;stroke-width:1.0;stroke-dasharray:5.0,5.0;" x1="30" x2="30" y1="40.2969" y2="264.2266"/><line style="stroke:#A80036;stroke-width:1.0;stroke-dasharray:5.0,5.0;" x1="172.5" x2="172.5" y1="40.2969" y2="264.2266"/><line style="stroke:#A80036;stroke-width:1.0;stroke-dasharray:5.0,5.0;" x1="311" x2="311" y1="40.2969" y2="264.2266"/><rect fill="#FEFECE" filter="url(#f9tg20ymhmply)" height="30.2969" style="stroke:#A80036;stroke-width:1.5;" width="46" x="5" y="5"/><text fill="#000000" font-family="sans-serif" font-size="14" lengthAdjust="spacingAndGlyphs" textLength="32" x="12" y="24.9951">Alice</text><rect fill="#FEFECE" filter="url(#f9tg20ymhmply)" height="30.2969" style="stroke:#A80036;stroke-width:1.5;" width="99" x="121.5" y="5"/><text fill="#000000" font-family="sans-serif" font-size="14" lengthAdjust="spacingAndGlyphs" textLength="85" x="128.5" y="24.9951">Parent Layer</text><rect fill="#FEFECE" filter="url(#f9tg20ymhmply)" height="30.2969" style="stroke:#A80036;stroke-width:1.5;" width="42" x="288" y="5"/><text fill="#000000" font-family="sans-serif" font-size="14" lengthAdjust="spacingAndGlyphs" textLength="28" x="295" y="24.9951">Bob</text><polygon fill="#A80036" points="161,67.4297,171,71.4297,161,75.4297,165,71.4297" style="stroke:#A80036;stroke-width:1.0;"/><line style="stroke:#A80036;stroke-width:1.0;" x1="30" x2="167" y1="71.4297" y2="71.4297"/><text fill="#000000" font-family="sans-serif" font-size="13" lengthAdjust="spacingAndGlyphs" textLength="59" x="72" y="66.3638">Conclude</text><polygon fill="#A80036" points="41,96.5625,31,100.5625,41,104.5625,37,100.5625" style="stroke:#A80036;stroke-width:1.0;"/><line style="stroke:#A80036;stroke-width:1.0;" x1="35" x2="172" y1="100.5625" y2="100.5625"/><text fill="#000000" font-family="sans-serif" font-size="13" lengthAdjust="spacingAndGlyphs" textLength="104" x="49.5" y="95.4966">State concluded</text><polygon fill="#A80036" points="299,125.6953,309,129.6953,299,133.6953,303,129.6953" style="stroke:#A80036;stroke-width:1.0;"/><line style="stroke:#A80036;stroke-width:1.0;" x1="173" x2="305" y1="129.6953" y2="129.6953"/><text fill="#000000" font-family="sans-serif" font-size="13" lengthAdjust="spacingAndGlyphs" textLength="104" x="190" y="124.6294">State concluded</text><polygon fill="#A80036" points="161,154.8281,171,158.8281,161,162.8281,165,158.8281" style="stroke:#A80036;stroke-width:1.0;"/><line style="stroke:#A80036;stroke-width:1.0;" x1="30" x2="167" y1="158.8281" y2="158.8281"/><text fill="#000000" font-family="sans-serif" font-size="13" lengthAdjust="spacingAndGlyphs" textLength="57" x="73" y="153.7622">Withdraw</text><polygon fill="#A80036" points="41,183.9609,31,187.9609,41,191.9609,37,187.9609" style="stroke:#A80036;stroke-width:1.0;"/><line style="stroke:#A80036;stroke-width:1.0;" x1="35" x2="172" y1="187.9609" y2="187.9609"/><text fill="#000000" font-family="sans-serif" font-size="13" lengthAdjust="spacingAndGlyphs" textLength="119" x="42" y="182.895">Withdrawn for alice</text><polygon fill="#A80036" points="184,213.0938,174,217.0938,184,221.0938,180,217.0938" style="stroke:#A80036;stroke-width:1.0;"/><line style="stroke:#A80036;stroke-width:1.0;" x1="178" x2="310" y1="217.0938" y2="217.0938"/><text fill="#000000" font-family="sans-serif" font-size="13" lengthAdjust="spacingAndGlyphs" textLength="57" x="213.5" y="212.0278">Withdraw</text><polygon fill="#A80036" points="299,242.2266,309,246.2266,299,250.2266,303,246.2266" style="stroke:#A80036;stroke-width:1.0;"/><line style="stroke:#A80036;stroke-width:1.0;" x1="173" x2="305" y1="246.2266" y2="246.2266"/><text fill="#000000" font-family="sans-serif" font-size="13" lengthAdjust="spacingAndGlyphs" textLength="114" x="185" y="241.1606">Withdrawn for bob</text><!--MD5=[0d7c9a777c2182b8e3c7e049663a1693]
@startuml settle_generic_blockchain
hide footbox
skinparam SequenceMessageAlign center

participant "Alice" as alice
participant "Parent Layer" as parentLayer
participant "Bob" as bob

alice -> parentLayer: Conclude
alice <- parentLayer: State concluded
parentLayer -> bob: State concluded

alice -> parentLayer: Withdraw
alice <- parentLayer: Withdrawn for alice

bob -> parentLayer: Withdraw
bob <- parentLayer: Withdrawn for bob

@enduml

PlantUML version 1.2020.21(Mon Nov 30 16:40:11 UTC 2020)
(GPL source distribution)
Java Runtime: OpenJDK Runtime Environment
JVM: OpenJDK 64-Bit Server VM
Default Encoding: UTF-8
Language: en
Country: null
--></g></svg>