<svg xmlns="http://www.w3.org/2000/svg" viewBox="0 0 1073.69 825.68"><defs><style>.cls-1{fill:#29093e;}.cls-2{fill:#250f3f;}</style></defs><title>Asset 10</title><g id="Layer_2" data-name="Layer 2"><g id="Layer_1-2" data-name="Layer 1"><polygon class="cls-1" points="545.38 480.28 680.22 361.73 545.38 1.32 587.02 218.48 529.22 288.47 545.38 480.28"/><path class="cls-1" d="M545.38,481.6a1.41,1.41,0,0,1-.49-.09,1.36,1.36,0,0,1-.83-1.12L527.9,288.58a1.32,1.32,0,0,1,.3-.95l57.4-69.51L544.08,1.57a1.32,1.32,0,0,1,2.54-.71L681.46,361.27a1.32,1.32,0,0,1-.36,1.46L546.26,481.27A1.32,1.32,0,0,1,545.38,481.6ZM530.59,288.9l15.89,188.65L678.66,361.34l-129-344.87,38.68,201.76a1.3,1.3,0,0,1-.28,1.09Z"/><polygon class="cls-1" points="528.31 1.32 393.47 361.73 528.31 480.28 471.86 292.19 550.25 222.54 528.31 1.32"/><path class="cls-1" d="M528.31,481.6a1.3,1.3,0,0,1-.87-.33L392.59,362.73a1.33,1.33,0,0,1-.36-1.46L527.07.86a1.33,1.33,0,0,1,2.56.33l21.94,221.22a1.32,1.32,0,0,1-.44,1.12l-77.76,69.09L529.58,479.9a1.32,1.32,0,0,1-.56,1.49A1.21,1.21,0,0,1,528.31,481.6ZM395,361.34l130.68,114.9L470.59,292.57a1.36,1.36,0,0,1,.39-1.37L548.87,222,527.55,7.12Z"/><polygon class="cls-1" points="318.92 712.86 241.31 712.86 241.31 689.27 330.54 689.27 318.92 712.86"/><path class="cls-2" d="M318.92,713.73H241.31a.87.87,0,0,1-.87-.87V689.27a.87.87,0,0,1,.87-.88h89.23a.88.88,0,0,1,.78,1.26L319.7,713.24A.86.86,0,0,1,318.92,713.73ZM242.19,712h76.19l10.75-21.84H242.19Z"/><rect class="cls-1" x="185.38" y="745.2" width="135.45" height="23.59" transform="translate(1010.1 503.88) rotate(90)"/><path class="cls-2" d="M264.91,825.59h-23.6a.87.87,0,0,1-.87-.87V689.27a.87.87,0,0,1,.87-.88h23.6a.87.87,0,0,1,.87.88V824.72A.87.87,0,0,1,264.91,825.59Zm-22.72-1.75H264V690.14H242.19Z"/><rect class="cls-1" x="241.31" y="744.5" width="62.7" height="23.59"/><path class="cls-2" d="M304,769h-62.7a.88.88,0,0,1-.87-.88V744.5a.87.87,0,0,1,.87-.87H304a.87.87,0,0,1,.87.87v23.59A.88.88,0,0,1,304,769Zm-61.82-1.75h60.95V745.37H242.19Z"/><polygon class="cls-1" points="330.54 824.72 241.31 824.72 241.31 801.13 318.92 801.13 330.54 824.72"/><path class="cls-2" d="M330.54,825.59H241.31a.87.87,0,0,1-.87-.87V801.13a.87.87,0,0,1,.87-.88h77.61a.86.86,0,0,1,.78.49l11.62,23.59a.87.87,0,0,1-.78,1.26Zm-88.35-1.75h86.94L318.38,802H242.19Z"/><path class="cls-1" d="M530.26,766.33C543.4,761.56,555,749.75,555,730.7c0-22.67-16.38-41.52-44-41.52H485.21V712.8H509.3c11.62,0,19.24,7.43,19.24,17.9s-7.62,17.91-19.24,17.91H485.21v22.1H503.4l26.48,54.1h30.67Z"/><path class="cls-2" d="M560.55,825.68H529.88a.88.88,0,0,1-.79-.49l-26.24-53.61H485.21a.87.87,0,0,1-.87-.87v-22.1a.87.87,0,0,1,.87-.88H509.3c11,0,18.37-6.84,18.37-17s-7.38-17-18.37-17H485.21a.87.87,0,0,1-.87-.87V689.18a.87.87,0,0,1,.87-.88H511c26.42,0,44.88,17.44,44.88,42.4,0,16.74-9.1,30.16-24.41,36.1l29.84,57.6a.88.88,0,0,1,0,.86A.89.89,0,0,1,560.55,825.68Zm-30.13-1.75h28.69l-29.63-57.2a.88.88,0,0,1,.48-1.23C545.1,760,554.15,747,554.15,730.7c0-23.93-17.74-40.65-43.13-40.65H486.09v21.87H509.3c11.85,0,20.12,7.72,20.12,18.78s-8.27,18.79-20.12,18.79H486.09v20.34H503.4a.89.89,0,0,1,.79.49Z"/><path class="cls-1" d="M764.85,824.72c-27.48,0-49.31-18.68-49.31-47.17V689.27H741.7v87.34c0,15.47,9,24.71,23.15,24.71s23.34-9.24,23.34-24.71V689.27h26v88.28C814.16,806,792.32,824.72,764.85,824.72Z"/><path class="cls-2" d="M764.85,825.58c-29.08,0-50.18-20.2-50.18-48V689.27a.87.87,0,0,1,.87-.87H741.7a.87.87,0,0,1,.86.87v87.34c0,14.71,8.54,23.85,22.29,23.85s22.47-9.14,22.47-23.85V689.27a.87.87,0,0,1,.87-.87h26a.87.87,0,0,1,.87.87v88.28C815,805.38,793.92,825.58,764.85,825.58ZM716.4,690.14v87.41c0,26.83,20.38,46.3,48.45,46.3s48.44-19.47,48.44-46.3V690.14H789.05v86.47c0,15.78-9.27,25.58-24.2,25.58s-24-9.8-24-25.58V690.14Z"/><path class="cls-1" d="M1049.2,824.79l-53.7-83.23v83.23H969V689.19h23.62l53.7,83v-83h26.48v135.6Z"/><path class="cls-2" d="M1072.82,825.67H1049.2a.89.89,0,0,1-.74-.4l-52.09-80.73v80.25a.88.88,0,0,1-.87.88H969a.88.88,0,0,1-.87-.88V689.19a.87.87,0,0,1,.87-.87h23.62a.89.89,0,0,1,.74.4l52.09,80.54V689.19a.87.87,0,0,1,.87-.87h26.48a.87.87,0,0,1,.87.87v135.6A.88.88,0,0,1,1072.82,825.67Zm-23.14-1.76h22.26V690.07h-24.72v82.16a.88.88,0,0,1-.63.84.87.87,0,0,1-1-.37l-53.45-82.63H969.9V823.91h24.72V741.56a.89.89,0,0,1,.63-.84.87.87,0,0,1,1,.37Z"/><path class="cls-1" d="M43.93,706.21a1.51,1.51,0,1,0-1.51-1.5A1.5,1.5,0,0,0,43.93,706.21Z"/><polygon class="cls-1" points="12.15 699.81 12.15 702.58 14.55 701.2 12.15 699.81"/><polygon class="cls-1" points="8.71 701.2 11.11 702.58 11.11 699.81 8.71 701.2"/><path class="cls-1" d="M56.08,706.73a1.28,1.28,0,1,0,1.28-1.28A1.28,1.28,0,0,0,56.08,706.73Z"/><polygon class="cls-1" points="12.67 698.91 15.07 700.29 15.07 697.53 12.67 698.91"/><path class="cls-1" d="M60.49,696.83a1.28,1.28,0,1,0-1.28-1.28A1.28,1.28,0,0,0,60.49,696.83Z"/><polygon class="cls-1" points="11.11 698.01 11.11 695.24 8.71 696.62 11.11 698.01"/><path class="cls-1" d="M80.11,716.87a1.28,1.28,0,1,0-1.28-1.28A1.28,1.28,0,0,0,80.11,716.87Z"/><path class="cls-1" d="M43.93,695a1.51,1.51,0,0,0,0-3,1.51,1.51,0,1,0,0,3Z"/><polygon class="cls-1" points="12.15 695.24 12.15 698.01 14.55 696.62 12.15 695.24"/><polygon class="cls-1" points="8.19 697.53 8.19 700.29 10.59 698.91 8.19 697.53"/><polygon class="cls-1" points="68.25 708.3 68.86 711.01 70.9 709.13 68.25 708.3"/><polygon class="cls-1" points="65.2 710.41 67.85 711.24 67.24 708.54 65.2 710.41"/><polygon class="cls-1" points="68.56 707.31 71.21 708.13 70.6 705.43 68.56 707.31"/><polygon class="cls-1" points="66.84 706.77 66.23 704.08 64.2 705.96 66.84 706.77"/><polygon class="cls-1" points="67.24 703.85 67.86 706.55 69.89 704.67 67.24 703.85"/><polygon class="cls-1" points="63.89 706.95 64.5 709.65 66.53 707.77 63.89 706.95"/><path class="cls-1" d="M78.47,742.45a1.29,1.29,0,1,0,1.28-1.28A1.29,1.29,0,0,0,78.47,742.45Z"/><path class="cls-1" d="M69.93,728.29a1.28,1.28,0,1,0,1.28,1.28A1.28,1.28,0,0,0,69.93,728.29Z"/><path class="cls-1" d="M62.29,739.37a1.28,1.28,0,0,0,0,2.56,1.28,1.28,0,1,0,0-2.56Z"/><path class="cls-1" d="M64,749.41h0a1.27,1.27,0,0,0-1.17-.77,1.28,1.28,0,1,0,1.28,1.28,1.25,1.25,0,0,0-.1-.51Z"/><path class="cls-1" d="M82.3,726.49a1.28,1.28,0,1,0,1.28,1.28A1.28,1.28,0,0,0,82.3,726.49Z"/><path class="cls-1" d="M47.12,688.34H.45a.45.45,0,0,0-.45.45V825.22a.42.42,0,0,0,.42.42H23.31a.42.42,0,0,0,.42-.42V709.51h22.2c10.75,0,17.58,6.83,17.58,16.74A16.46,16.46,0,0,1,59.9,737a19.2,19.2,0,0,0-.41,23.79l.64.85a1.13,1.13,0,0,0,1.24.4c16.43-5.19,25.87-19.42,25.87-35.8C87.24,705.59,72.22,688.34,47.12,688.34ZM82.3,730.09A2.33,2.33,0,0,1,80,727.77a2.16,2.16,0,0,1,.17-.8l-1.41-.51a.55.55,0,0,1-.25-.2l-1.13-1.64c.06.78.13,1.56.13,2.36a33.24,33.24,0,0,1-.61,6.23,13.14,13.14,0,0,0,1.76,7.25,2.29,2.29,0,0,1,1.12-.33,2.33,2.33,0,1,1-2.32,2.32,2.27,2.27,0,0,1,.41-1.24A13.91,13.91,0,0,1,76,736.47a22.34,22.34,0,0,1-11,12.95,2.6,2.6,0,0,1,.1.5,2.33,2.33,0,1,1-2.33-2.32,2.3,2.3,0,0,1,1.78.87,21.1,21.1,0,0,0,10.34-12,10.43,10.43,0,0,1-9.2,5.1c-.42,0-.87,0-1.31-.08a2.36,2.36,0,1,1,.15-1c8.13.71,10.69-6.17,11.36-8.82a11,11,0,0,1,.23-1.09l.08-.08c.11-1.14.17-2.31.17-3.54,0-.83-.06-1.64-.13-2.44L74.77,728l-.24.25-2.32,1.16a1.91,1.91,0,0,1,0,.21,2.33,2.33,0,1,1-2.32-2.32,2.3,2.3,0,0,1,1.94,1.12l2-1L76,722.6a24.45,24.45,0,0,0-2.58-7.52l-.3,3.27-.14.31-1.19,1.26a2.25,2.25,0,0,1,.43,1.27,2.33,2.33,0,1,1-2.32-2.32,2.29,2.29,0,0,1,1.13.33l1.07-1.13.42-4.58a26,26,0,0,0-2-2.64l-1.8,1.55s-.1,0-.15.06-.06,0-.1.06h-.09l-.18,0L64,711a.5.5,0,0,1-.34-.39l-.85-4.5a.46.46,0,0,1,0-.26h0a.64.64,0,0,1,.14-.22l.75-.64a34.49,34.49,0,0,0-10.19-4.17l3.13,2.27a.52.52,0,0,1,.2.3l.28,1.1a1.69,1.69,0,0,1,.24-.05A2.33,2.33,0,1,1,55,706.73a2.27,2.27,0,0,1,1.1-1.92l-.26-1-4.83-3.48a43.21,43.21,0,0,0-7.41-.64H30.16l4,4.53h7.3a2.51,2.51,0,0,1,2.45-2,2.55,2.55,0,0,1,0,5.09,2.51,2.51,0,0,1-2.44-2H34l-.39-.18-4.79-5.39H16.11v1.53a.51.51,0,0,1-.06.25h0s0,0-.06.06a.4.4,0,0,1-.13.13h0l-1,.57v7.59a.53.53,0,0,1-1,0v-7l-1.66,1v10a.52.52,0,0,1-1,0v-10l-1.64-.94v7a.52.52,0,0,1-1,0v-7.57l-1-.59h0a.53.53,0,0,1-.13-.13l-.06-.06h0a.43.43,0,0,1-.07-.25v-4.58a.45.45,0,0,1,.07-.25h0a.58.58,0,0,1,.19-.19l4-2.28a.49.49,0,0,1,.52,0l4,2.28a.5.5,0,0,1,.19.19h0a.54.54,0,0,1,.06.25v2H28.59s0,0,0-.07L33.56,693l.39-.18h7.57a2.52,2.52,0,0,1,4.95.71,2.55,2.55,0,0,1-2.54,2.55,2.52,2.52,0,0,1-2.48-2.22H34.18L30,698.63H43.64a44.84,44.84,0,0,1,7.54.64l5.47-.85,1.86-1.73a2.21,2.21,0,0,1-.34-1.14,2.32,2.32,0,1,1,2.32,2.33,2.22,2.22,0,0,1-1.26-.43l-2,1.84-.28.14-2.83.43a35.78,35.78,0,0,1,10.41,4.38l1.88-1.62a.55.55,0,0,1,.52-.1L71.25,704a.5.5,0,0,1,.34.39l.85,4.5a.57.57,0,0,1,0,.26h0a.51.51,0,0,1-.15.21l-.87.75a25.78,25.78,0,0,1,2.13,2.88L76.84,715l1,.07a2.32,2.32,0,1,1,0,1.05L76.65,716a.62.62,0,0,1-.23-.07l-1.91-1.11a25.25,25.25,0,0,1,2.53,7.5l2.2,3.21,1.49.53a2.32,2.32,0,1,1,1.57,4Z"/><path class="cls-1" d="M69.93,719.91a1.29,1.29,0,1,0,1.28,1.28A1.28,1.28,0,0,0,69.93,719.91Z"/></g></g></svg>